<svg width="162" height="16" viewBox="0 0 162 16" fill="none" xmlns="http://www.w3.org/2000/svg">
<g id="Property 1=Variant2">
<path id="Union" fill-rule="evenodd" clip-rule="evenodd" d="M43.2188 11.25V12.4766H37.8281H37.5312H36.3203V1.10156H37.8281V11.25H43.2188ZM49.5234 11.7969C49.6013 11.7265 49.6747 11.6552 49.7436 11.5831C49.7519 11.6579 49.7619 11.7344 49.7734 11.8125C49.8151 12.0885 49.8724 12.3099 49.9453 12.4766H51.4531V12.3516C51.3542 12.1224 51.2786 11.849 51.2266 11.5312C51.1797 11.2135 51.1562 10.9141 51.1562 10.6328V6.69531C51.1562 6.0651 51.0208 5.54167 50.75 5.125C50.4844 4.70312 50.1146 4.38802 49.6406 4.17969C49.1719 3.97135 48.6302 3.86719 48.0156 3.86719C47.5052 3.86719 47.0417 3.9401 46.625 4.08594C46.2135 4.22656 45.8594 4.41927 45.5625 4.66406C45.2708 4.90365 45.0469 5.17188 44.8906 5.46875C44.7344 5.76562 44.6562 6.0651 44.6562 6.36719H46.1016C46.1016 6.13281 46.1771 5.91406 46.3281 5.71094C46.4844 5.50781 46.6979 5.34375 46.9688 5.21875C47.2448 5.09375 47.5651 5.03125 47.9297 5.03125C48.3203 5.03125 48.6484 5.09896 48.9141 5.23438C49.1797 5.36979 49.3776 5.5625 49.5078 5.8125C49.6432 6.05729 49.7109 6.34635 49.7109 6.67969V7.35156H48.2812C47.7031 7.35156 47.1797 7.41146 46.7109 7.53125C46.2422 7.65104 45.8411 7.82812 45.5078 8.0625C45.1745 8.29167 44.9193 8.58073 44.7422 8.92969C44.5651 9.27344 44.4766 9.67188 44.4766 10.125C44.4766 10.5938 44.5938 11.0182 44.8281 11.3984C45.0677 11.7734 45.401 12.0729 45.8281 12.2969C46.2604 12.5208 46.763 12.6328 47.3359 12.6328C47.7943 12.6328 48.2057 12.5547 48.5703 12.3984C48.9401 12.237 49.2578 12.0365 49.5234 11.7969ZM49.5234 10.3984C49.5989 10.2979 49.6614 10.1984 49.7109 10.1V8.36719H48.5156C48.1042 8.36719 47.737 8.40104 47.4141 8.46875C47.0911 8.53125 46.8203 8.6276 46.6016 8.75781C46.3828 8.88802 46.2161 9.05208 46.1016 9.25C45.987 9.44271 45.9297 9.66927 45.9297 9.92969C45.9297 10.1953 45.9896 10.4375 46.1094 10.6562C46.2292 10.875 46.4089 11.0495 46.6484 11.1797C46.8932 11.3047 47.1927 11.3672 47.5469 11.3672C47.9896 11.3672 48.3802 11.2734 48.7188 11.0859C49.0573 10.8984 49.3255 10.6693 49.5234 10.3984ZM58.3516 10.2344C58.3516 10.026 58.3047 9.83333 58.2109 9.65625C58.1224 9.47396 57.9375 9.3099 57.6562 9.16406C57.3802 9.01302 56.9635 8.88281 56.4062 8.77344C55.9375 8.67448 55.513 8.55729 55.1328 8.42188C54.7578 8.28646 54.4375 8.1224 54.1719 7.92969C53.9115 7.73698 53.7109 7.51042 53.5703 7.25C53.4297 6.98958 53.3594 6.6849 53.3594 6.33594C53.3594 6.0026 53.4323 5.6875 53.5781 5.39062C53.7292 5.09375 53.9401 4.83073 54.2109 4.60156C54.487 4.3724 54.8177 4.19271 55.2031 4.0625C55.5885 3.93229 56.0182 3.86719 56.4922 3.86719C57.1693 3.86719 57.7474 3.98698 58.2266 4.22656C58.7057 4.46615 59.0729 4.78646 59.3281 5.1875C59.5833 5.58333 59.7109 6.02344 59.7109 6.50781H58.2656C58.2656 6.27344 58.1953 6.04688 58.0547 5.82812C57.9193 5.60417 57.7188 5.41927 57.4531 5.27344C57.1927 5.1276 56.8724 5.05469 56.4922 5.05469C56.0911 5.05469 55.7656 5.11719 55.5156 5.24219C55.2708 5.36198 55.0911 5.51562 54.9766 5.70312C54.8672 5.89062 54.8125 6.08854 54.8125 6.29688C54.8125 6.45312 54.8385 6.59375 54.8906 6.71875C54.9479 6.83854 55.0469 6.95052 55.1875 7.05469C55.3281 7.15365 55.526 7.2474 55.7812 7.33594C56.0365 7.42448 56.362 7.51302 56.7578 7.60156C57.4505 7.75781 58.0208 7.94531 58.4688 8.16406C58.9167 8.38281 59.25 8.65104 59.4688 8.96875C59.6875 9.28646 59.7969 9.67188 59.7969 10.125C59.7969 10.4948 59.7188 10.8333 59.5625 11.1406C59.4115 11.4479 59.1901 11.7135 58.8984 11.9375C58.612 12.1562 58.2682 12.3281 57.8672 12.4531C57.4714 12.5729 57.026 12.6328 56.5312 12.6328C55.7865 12.6328 55.1562 12.5 54.6406 12.2344C54.125 11.9688 53.7344 11.625 53.4688 11.2031C53.2031 10.7812 53.0703 10.3359 53.0703 9.86719H54.5234C54.5443 10.263 54.6589 10.5781 54.8672 10.8125C55.0755 11.0417 55.3307 11.2057 55.6328 11.3047C55.9349 11.3984 56.2344 11.4453 56.5312 11.4453C56.9271 11.4453 57.2578 11.3932 57.5234 11.2891C57.7943 11.1849 58 11.0417 58.1406 10.8594C58.2812 10.6771 58.3516 10.4688 58.3516 10.2344ZM65.2344 4.02344V5.13281H63.6562V10.3828C63.6562 10.6693 63.7005 10.8854 63.7891 11.0312C63.8776 11.1771 63.9922 11.2734 64.1328 11.3203C64.2734 11.3672 64.4245 11.3906 64.5859 11.3906C64.7057 11.3906 64.8307 11.3802 64.9609 11.3594C65.0964 11.3333 65.1979 11.3125 65.2656 11.2969L65.2734 12.4766C65.1589 12.513 65.0078 12.5469 64.8203 12.5781C64.638 12.6146 64.4167 12.6328 64.1562 12.6328C63.8021 12.6328 63.4766 12.5625 63.1797 12.4219C62.8828 12.2812 62.6458 12.0469 62.4688 11.7188C62.2969 11.3854 62.2109 10.9375 62.2109 10.375V5.13281H60.6641V4.02344H62.2109V1.96875H63.6562V4.02344H65.2344ZM72.8516 6.07812H73.8828C74.388 6.07812 74.8047 5.99479 75.1328 5.82812C75.4661 5.65625 75.7135 5.42448 75.875 5.13281C76.0417 4.83594 76.125 4.5026 76.125 4.13281C76.125 3.69531 76.0521 3.32812 75.9062 3.03125C75.7604 2.73438 75.5417 2.51042 75.25 2.35938C74.9583 2.20833 74.5885 2.13281 74.1406 2.13281C73.7344 2.13281 73.375 2.21354 73.0625 2.375C72.7552 2.53125 72.513 2.75521 72.3359 3.04688C72.1641 3.33854 72.0781 3.68229 72.0781 4.07812H70.6328C70.6328 3.5 70.7786 2.97396 71.0703 2.5C71.362 2.02604 71.7708 1.64844 72.2969 1.36719C72.8281 1.08594 73.4427 0.945312 74.1406 0.945312C74.8281 0.945312 75.4297 1.06771 75.9453 1.3125C76.4609 1.55208 76.862 1.91146 77.1484 2.39062C77.4349 2.86458 77.5781 3.45573 77.5781 4.16406C77.5781 4.45052 77.5104 4.75781 77.375 5.08594C77.2448 5.40885 77.0391 5.71094 76.7578 5.99219C76.5095 6.24518 76.1938 6.45814 75.8106 6.63106C75.835 6.63924 75.8591 6.64764 75.8828 6.65625C76.3568 6.82812 76.7292 7.05729 77 7.34375C77.276 7.63021 77.4688 7.94531 77.5781 8.28906C77.6927 8.6276 77.75 8.96615 77.75 9.30469C77.75 9.83594 77.6589 10.3073 77.4766 10.7188C77.2995 11.1302 77.0469 11.4792 76.7188 11.7656C76.3958 12.0521 76.0156 12.2682 75.5781 12.4141C75.1406 12.5599 74.6641 12.6328 74.1484 12.6328C73.6536 12.6328 73.1875 12.5625 72.75 12.4219C72.3177 12.2812 71.9349 12.0781 71.6016 11.8125C71.2682 11.5417 71.0078 11.2109 70.8203 10.8203C70.6328 10.4245 70.5391 9.97396 70.5391 9.46875H71.9844C71.9844 9.86458 72.0703 10.2109 72.2422 10.5078C72.4193 10.8047 72.6693 11.0365 72.9922 11.2031C73.3203 11.3646 73.7057 11.4453 74.1484 11.4453C74.5911 11.4453 74.9714 11.3698 75.2891 11.2188C75.612 11.0625 75.8594 10.8281 76.0312 10.5156C76.2083 10.2031 76.2969 9.8099 76.2969 9.33594C76.2969 8.86198 76.1979 8.47396 76 8.17188C75.8021 7.86458 75.5208 7.63802 75.1562 7.49219C74.7969 7.34115 74.3724 7.26562 73.8828 7.26562H72.8516V6.95312V6.39844V6.07812ZM86.8828 5.88281V7.61719C86.8828 8.54948 86.7995 9.33594 86.6328 9.97656C86.4661 10.6172 86.2266 11.1328 85.9141 11.5234C85.6016 11.9141 85.224 12.1979 84.7812 12.375C84.3438 12.5469 83.849 12.6328 83.2969 12.6328C82.8594 12.6328 82.4557 12.5781 82.0859 12.4688C81.7161 12.3594 81.3828 12.1849 81.0859 11.9453C80.7943 11.7005 80.5443 11.3828 80.3359 10.9922C80.1276 10.6016 79.9688 10.1276 79.8594 9.57031C79.75 9.01302 79.6953 8.36198 79.6953 7.61719V5.88281C79.6953 4.95052 79.7786 4.16927 79.9453 3.53906C80.1172 2.90885 80.3594 2.40365 80.6719 2.02344C80.9844 1.63802 81.3594 1.36198 81.7969 1.19531C82.2396 1.02865 82.7344 0.945312 83.2812 0.945312C83.724 0.945312 84.1302 1 84.5 1.10938C84.875 1.21354 85.2083 1.38281 85.5 1.61719C85.7917 1.84635 86.0391 2.15365 86.2422 2.53906C86.4505 2.91927 86.6094 3.38542 86.7188 3.9375C86.8281 4.48958 86.8828 5.13802 86.8828 5.88281ZM85.4297 7.85156V5.64062C85.4297 5.13021 85.3984 4.68229 85.3359 4.29688C85.2786 3.90625 85.1927 3.57292 85.0781 3.29688C84.9635 3.02083 84.8177 2.79688 84.6406 2.625C84.4688 2.45312 84.2682 2.32812 84.0391 2.25C83.8151 2.16667 83.5625 2.125 83.2812 2.125C82.9375 2.125 82.6328 2.1901 82.3672 2.32031C82.1016 2.44531 81.8776 2.64583 81.6953 2.92188C81.5182 3.19792 81.3828 3.5599 81.2891 4.00781C81.1953 4.45573 81.1484 5 81.1484 5.64062V7.85156C81.1484 8.36198 81.1771 8.8125 81.2344 9.20312C81.2969 9.59375 81.388 9.93229 81.5078 10.2188C81.6276 10.5 81.7734 10.7318 81.9453 10.9141C82.1172 11.0964 82.3151 11.2318 82.5391 11.3203C82.7682 11.4036 83.0208 11.4453 83.2969 11.4453C83.651 11.4453 83.9609 11.3776 84.2266 11.2422C84.4922 11.1068 84.7135 10.8958 84.8906 10.6094C85.0729 10.3177 85.2083 9.94531 85.2969 9.49219C85.3854 9.03385 85.4297 8.48698 85.4297 7.85156ZM96.1641 12.4766H94.5938H93.7891H93.0859V1.10156H93.7422H94.5938H96.3047C97.0495 1.10156 97.7292 1.22656 98.3438 1.47656C98.9583 1.72135 99.487 2.07812 99.9297 2.54688C100.378 3.01042 100.721 3.57292 100.961 4.23438C101.201 4.89062 101.32 5.63021 101.32 6.45312V7.13281C101.32 7.95573 101.201 8.69792 100.961 9.35938C100.721 10.0156 100.375 10.5755 99.9219 11.0391C99.474 11.5026 98.9323 11.8594 98.2969 12.1094C97.6667 12.3542 96.9557 12.4766 96.1641 12.4766ZM96.1641 11.25H94.5938V2.33594H96.3047C96.8672 2.33594 97.3646 2.42708 97.7969 2.60938C98.2344 2.79167 98.6042 3.0599 98.9062 3.41406C99.2083 3.76302 99.4375 4.19271 99.5938 4.70312C99.75 5.20833 99.8281 5.78646 99.8281 6.4375V7.13281C99.8281 7.96094 99.6901 8.6849 99.4141 9.30469C99.1432 9.91927 98.737 10.3984 98.1953 10.7422C97.6536 11.0807 96.9766 11.25 96.1641 11.25ZM108.164 11.7969C108.242 11.7265 108.315 11.6552 108.384 11.5831C108.393 11.6579 108.402 11.7344 108.414 11.8125C108.456 12.0885 108.513 12.3099 108.586 12.4766H110.094V12.3516C109.995 12.1224 109.919 11.849 109.867 11.5312C109.82 11.2135 109.797 10.9141 109.797 10.6328V6.69531C109.797 6.0651 109.661 5.54167 109.391 5.125C109.125 4.70312 108.755 4.38802 108.281 4.17969C107.812 3.97135 107.271 3.86719 106.656 3.86719C106.146 3.86719 105.682 3.9401 105.266 4.08594C104.854 4.22656 104.5 4.41927 104.203 4.66406C103.911 4.90365 103.688 5.17188 103.531 5.46875C103.375 5.76562 103.297 6.0651 103.297 6.36719H104.742C104.742 6.13281 104.818 5.91406 104.969 5.71094C105.125 5.50781 105.339 5.34375 105.609 5.21875C105.885 5.09375 106.206 5.03125 106.57 5.03125C106.961 5.03125 107.289 5.09896 107.555 5.23438C107.82 5.36979 108.018 5.5625 108.148 5.8125C108.284 6.05729 108.352 6.34635 108.352 6.67969V7.35156H106.922C106.344 7.35156 105.82 7.41146 105.352 7.53125C104.883 7.65104 104.482 7.82812 104.148 8.0625C103.815 8.29167 103.56 8.58073 103.383 8.92969C103.206 9.27344 103.117 9.67188 103.117 10.125C103.117 10.5938 103.234 11.0182 103.469 11.3984C103.708 11.7734 104.042 12.0729 104.469 12.2969C104.901 12.5208 105.404 12.6328 105.977 12.6328C106.435 12.6328 106.846 12.5547 107.211 12.3984C107.581 12.237 107.898 12.0365 108.164 11.7969ZM108.164 10.3984C108.239 10.2979 108.302 10.1984 108.352 10.1V8.36719H107.156C106.745 8.36719 106.378 8.40104 106.055 8.46875C105.732 8.53125 105.461 8.6276 105.242 8.75781C105.023 8.88802 104.857 9.05208 104.742 9.25C104.628 9.44271 104.57 9.66927 104.57 9.92969C104.57 10.1953 104.63 10.4375 104.75 10.6562C104.87 10.875 105.049 11.0495 105.289 11.1797C105.534 11.3047 105.833 11.3672 106.188 11.3672C106.63 11.3672 107.021 11.2734 107.359 11.0859C107.698 10.8984 107.966 10.6693 108.164 10.3984ZM111.016 4.02344L114.033 12.3854L113.719 13.2422C113.604 13.5911 113.466 13.8646 113.305 14.0625C113.148 14.2656 112.956 14.4089 112.727 14.4922C112.497 14.5807 112.219 14.625 111.891 14.625C111.854 14.625 111.789 14.6198 111.695 14.6094C111.607 14.6042 111.542 14.599 111.5 14.5938L111.508 15.7656C111.581 15.7865 111.706 15.8125 111.883 15.8438C112.06 15.875 112.206 15.8906 112.32 15.8906C112.706 15.8906 113.036 15.8203 113.312 15.6797C113.594 15.5443 113.833 15.3672 114.031 15.1484C114.229 14.9297 114.391 14.6979 114.516 14.4531C114.646 14.2135 114.75 13.9896 114.828 13.7812L118.219 4.02344H116.672L114.709 10.3477L112.594 4.02344H111.016ZM124.445 10.2344C124.445 10.026 124.398 9.83333 124.305 9.65625C124.216 9.47396 124.031 9.3099 123.75 9.16406C123.474 9.01302 123.057 8.88281 122.5 8.77344C122.031 8.67448 121.607 8.55729 121.227 8.42188C120.852 8.28646 120.531 8.1224 120.266 7.92969C120.005 7.73698 119.805 7.51042 119.664 7.25C119.523 6.98958 119.453 6.6849 119.453 6.33594C119.453 6.0026 119.526 5.6875 119.672 5.39062C119.823 5.09375 120.034 4.83073 120.305 4.60156C120.581 4.3724 120.911 4.19271 121.297 4.0625C121.682 3.93229 122.112 3.86719 122.586 3.86719C123.263 3.86719 123.841 3.98698 124.32 4.22656C124.799 4.46615 125.167 4.78646 125.422 5.1875C125.677 5.58333 125.805 6.02344 125.805 6.50781H124.359C124.359 6.27344 124.289 6.04688 124.148 5.82812C124.013 5.60417 123.812 5.41927 123.547 5.27344C123.286 5.1276 122.966 5.05469 122.586 5.05469C122.185 5.05469 121.859 5.11719 121.609 5.24219C121.365 5.36198 121.185 5.51562 121.07 5.70312C120.961 5.89062 120.906 6.08854 120.906 6.29688C120.906 6.45312 120.932 6.59375 120.984 6.71875C121.042 6.83854 121.141 6.95052 121.281 7.05469C121.422 7.15365 121.62 7.2474 121.875 7.33594C122.13 7.42448 122.456 7.51302 122.852 7.60156C123.544 7.75781 124.115 7.94531 124.562 8.16406C125.01 8.38281 125.344 8.65104 125.562 8.96875C125.781 9.28646 125.891 9.67188 125.891 10.125C125.891 10.4948 125.812 10.8333 125.656 11.1406C125.505 11.4479 125.284 11.7135 124.992 11.9375C124.706 12.1562 124.362 12.3281 123.961 12.4531C123.565 12.5729 123.12 12.6328 122.625 12.6328C121.88 12.6328 121.25 12.5 120.734 12.2344C120.219 11.9688 119.828 11.625 119.562 11.2031C119.297 10.7812 119.164 10.3359 119.164 9.86719H120.617C120.638 10.263 120.753 10.5781 120.961 10.8125C121.169 11.0417 121.424 11.2057 121.727 11.3047C122.029 11.3984 122.328 11.4453 122.625 11.4453C123.021 11.4453 123.352 11.3932 123.617 11.2891C123.888 11.1849 124.094 11.0417 124.234 10.8594C124.375 10.6771 124.445 10.4688 124.445 10.2344ZM5.79062 2.70673C6.07772 3.00531 6.06841 3.48009 5.76983 3.76719L1.83208 7.47656L5.76983 11.1859C6.06841 11.473 6.07772 11.9478 5.79062 12.2464C5.50353 12.545 5.02875 12.5543 4.73017 12.2672L0.230167 8.01719C0.083107 7.87578 0 7.68058 0 7.47656C0 7.27255 0.083107 7.07734 0.230167 6.93594L4.73017 2.68594C5.02875 2.39884 5.50353 2.40815 5.79062 2.70673ZM156.23 11.1859C155.932 11.473 155.922 11.9478 156.209 12.2464C156.496 12.545 156.971 12.5543 157.27 12.2672L161.77 8.01719C161.917 7.87578 162 7.68057 162 7.47656C162 7.27255 161.917 7.07734 161.77 6.93594L157.27 2.68594C156.971 2.39884 156.496 2.40815 156.209 2.70673C155.922 3.00531 155.932 3.48009 156.23 3.76719L160.168 7.47656L156.23 11.1859Z" fill="#0F172A"/>
</g>
</svg>
